<?xml version="1.0" encoding="UTF-8" standalone="no"?><svg xmlns="http://www.w3.org/2000/svg" xmlns:xlink="http://www.w3.org/1999/xlink" contentScriptType="application/ecmascript" contentStyleType="text/css" height="275px" preserveAspectRatio="none" style="width:237px;height:275px;background:#FFFFFF;" version="1.1" viewBox="0 0 237 275" width="237px" zoomAndPan="magnify"><defs><filter height="300%" id="farajrvpf9h7y" width="300%" x="-1" y="-1"><feGaussianBlur result="blurOut" stdDeviation="2.0"/><feColorMatrix in="blurOut" result="blurOut2" type="matrix" values="0 0 0 0 0 0 0 0 0 0 0 0 0 0 0 0 0 0 .4 0"/><feOffset dx="4.0" dy="4.0" in="blurOut2" result="blurOut3"/><feBlend in="SourceGraphic" in2="blurOut3" mode="normal"/></filter></defs><g><!--MD5=[931ec41c47d2faaeac20fbe4d4246be7]
class Firmware--><rect codeLine="4" fill="#FEFECE" filter="url(#farajrvpf9h7y)" height="48" id="Firmware" style="stroke:#A80036;stroke-width:1.5;" width="84" x="67" y="92"/><ellipse cx="82" cy="108" fill="#ADD1B2" rx="11" ry="11" style="stroke:#A80036;stroke-width:1.0;"/><path d="M84.7656,103.875 Q84.9219,103.6563 85.1094,103.5469 Q85.2969,103.4375 85.5156,103.4375 Q85.8906,103.4375 86.125,103.6953 Q86.3594,103.9531 86.3594,104.5625 L86.3594,106.0156 Q86.3594,106.625 86.125,106.8906 Q85.8906,107.1563 85.5156,107.1563 Q85.1719,107.1563 84.9688,106.9531 Q84.7656,106.7656 84.6563,106.25 Q84.6094,105.8906 84.4219,105.7031 Q84.0938,105.3281 83.4844,105.1094 Q82.875,104.8906 82.25,104.8906 Q81.4844,104.8906 80.8516,105.2188 Q80.2188,105.5469 79.7266,106.2969 Q79.2344,107.0469 79.2344,108.0781 L79.2344,109.1719 Q79.2344,110.4063 80.125,111.2266 Q81.0156,112.0469 82.6094,112.0469 Q83.5469,112.0469 84.2031,111.7969 Q84.5938,111.6406 85.0156,111.2031 Q85.2813,110.9375 85.4297,110.8594 Q85.5781,110.7813 85.7813,110.7813 Q86.1094,110.7813 86.3672,111.0391 Q86.625,111.2969 86.625,111.6406 Q86.625,111.9844 86.2813,112.3906 Q85.7813,112.9688 84.9844,113.2969 Q83.9063,113.75 82.6094,113.75 Q81.0938,113.75 79.8906,113.125 Q78.9063,112.625 78.2188,111.5547 Q77.5313,110.4844 77.5313,109.2031 L77.5313,108.0469 Q77.5313,106.7188 78.1484,105.5703 Q78.7656,104.4219 79.8594,103.8047 Q80.9531,103.1875 82.1875,103.1875 Q82.9219,103.1875 83.5703,103.3516 Q84.2188,103.5156 84.7656,103.875 Z " fill="#000000"/><text fill="#000000" font-family="sans-serif" font-size="12" lengthAdjust="spacing" textLength="52" x="96" y="112.9102">Firmware</text><line style="stroke:#A80036;stroke-width:1.5;" x1="68" x2="150" y1="124" y2="124"/><line style="stroke:#A80036;stroke-width:1.5;" x1="68" x2="150" y1="132" y2="132"/><path d="M65,6 L65,32.3516 A0,0 0 0 0 65,32.3516 L105,32.3516 L109,91.81 L113,32.3516 L153,32.3516 A0,0 0 0 0 153,32.3516 L153,16 L143,6 L65,6 A0,0 0 0 0 65,6 " fill="#FBFB77" filter="url(#farajrvpf9h7y)" style="stroke:#A80036;stroke-width:1.0;"/><path d="M143,6 L143,16 L153,16 L143,6 " fill="#FBFB77" style="stroke:#A80036;stroke-width:1.0;"/><text fill="#000000" font-family="sans-serif" font-size="13" lengthAdjust="spacing" textLength="67" x="71" y="24.4951">Entry point.</text><!--MD5=[08278ffe0d19eded36b1ad8609ead0c1]
class Detector--><rect codeLine="7" fill="#FEFECE" filter="url(#farajrvpf9h7y)" height="61.8359" id="Detector" style="stroke:#A80036;stroke-width:1.5;" width="78" x="7" y="200"/><ellipse cx="22" cy="216" fill="#ADD1B2" rx="11" ry="11" style="stroke:#A80036;stroke-width:1.0;"/><path d="M24.7656,211.875 Q24.9219,211.6563 25.1094,211.5469 Q25.2969,211.4375 25.5156,211.4375 Q25.8906,211.4375 26.125,211.6953 Q26.3594,211.9531 26.3594,212.5625 L26.3594,214.0156 Q26.3594,214.625 26.125,214.8906 Q25.8906,215.1563 25.5156,215.1563 Q25.1719,215.1563 24.9688,214.9531 Q24.7656,214.7656 24.6563,214.25 Q24.6094,213.8906 24.4219,213.7031 Q24.0938,213.3281 23.4844,213.1094 Q22.875,212.8906 22.25,212.8906 Q21.4844,212.8906 20.8516,213.2188 Q20.2188,213.5469 19.7266,214.2969 Q19.2344,215.0469 19.2344,216.0781 L19.2344,217.1719 Q19.2344,218.4063 20.125,219.2266 Q21.0156,220.0469 22.6094,220.0469 Q23.5469,220.0469 24.2031,219.7969 Q24.5938,219.6406 25.0156,219.2031 Q25.2813,218.9375 25.4297,218.8594 Q25.5781,218.7813 25.7813,218.7813 Q26.1094,218.7813 26.3672,219.0391 Q26.625,219.2969 26.625,219.6406 Q26.625,219.9844 26.2813,220.3906 Q25.7813,220.9688 24.9844,221.2969 Q23.9063,221.75 22.6094,221.75 Q21.0938,221.75 19.8906,221.125 Q18.9063,220.625 18.2188,219.5547 Q17.5313,218.4844 17.5313,217.2031 L17.5313,216.0469 Q17.5313,214.7188 18.1484,213.5703 Q18.7656,212.4219 19.8594,211.8047 Q20.9531,211.1875 22.1875,211.1875 Q22.9219,211.1875 23.5703,211.3516 Q24.2188,211.5156 24.7656,211.875 Z " fill="#000000"/><text fill="#000000" font-family="sans-serif" font-size="12" lengthAdjust="spacing" textLength="46" x="36" y="220.9102">Detector</text><line style="stroke:#A80036;stroke-width:1.5;" x1="8" x2="84" y1="232" y2="232"/><text fill="#000000" font-family="sans-serif" font-size="11" lengthAdjust="spacing" textLength="51" x="13" y="247.4189">int counter</text><line style="stroke:#A80036;stroke-width:1.5;" x1="8" x2="84" y1="253.8359" y2="253.8359"/><!--MD5=[53ef71ce599a93b4f6b6666f0935ca97]
class UART_Driver--><rect codeLine="11" fill="#FEFECE" filter="url(#farajrvpf9h7y)" height="48" id="UART_Driver" style="stroke:#A80036;stroke-width:1.5;" width="103" x="120.5" y="207"/><ellipse cx="135.5" cy="223" fill="#ADD1B2" rx="11" ry="11" style="stroke:#A80036;stroke-width:1.0;"/><path d="M138.2656,218.875 Q138.4219,218.6563 138.6094,218.5469 Q138.7969,218.4375 139.0156,218.4375 Q139.3906,218.4375 139.625,218.6953 Q139.8594,218.9531 139.8594,219.5625 L139.8594,221.0156 Q139.8594,221.625 139.625,221.8906 Q139.3906,222.1563 139.0156,222.1563 Q138.6719,222.1563 138.4688,221.9531 Q138.2656,221.7656 138.1563,221.25 Q138.1094,220.8906 137.9219,220.7031 Q137.5938,220.3281 136.9844,220.1094 Q136.375,219.8906 135.75,219.8906 Q134.9844,219.8906 134.3516,220.2188 Q133.7188,220.5469 133.2266,221.2969 Q132.7344,222.0469 132.7344,223.0781 L132.7344,224.1719 Q132.7344,225.4063 133.625,226.2266 Q134.5156,227.0469 136.1094,227.0469 Q137.0469,227.0469 137.7031,226.7969 Q138.0938,226.6406 138.5156,226.2031 Q138.7813,225.9375 138.9297,225.8594 Q139.0781,225.7813 139.2813,225.7813 Q139.6094,225.7813 139.8672,226.0391 Q140.125,226.2969 140.125,226.6406 Q140.125,226.9844 139.7813,227.3906 Q139.2813,227.9688 138.4844,228.2969 Q137.4063,228.75 136.1094,228.75 Q134.5938,228.75 133.3906,228.125 Q132.4063,227.625 131.7188,226.5547 Q131.0313,225.4844 131.0313,224.2031 L131.0313,223.0469 Q131.0313,221.7188 131.6484,220.5703 Q132.2656,219.4219 133.3594,218.8047 Q134.4531,218.1875 135.6875,218.1875 Q136.4219,218.1875 137.0703,218.3516 Q137.7188,218.5156 138.2656,218.875 Z " fill="#000000"/><text fill="#000000" font-family="sans-serif" font-size="12" lengthAdjust="spacing" textLength="71" x="149.5" y="227.9102">UART_Driver</text><line style="stroke:#A80036;stroke-width:1.5;" x1="121.5" x2="222.5" y1="239" y2="239"/><line style="stroke:#A80036;stroke-width:1.5;" x1="121.5" x2="222.5" y1="247" y2="247"/><!--MD5=[7934ccc446f4658f671f61d03077529f]
link Firmware to Detector--><path codeLine="14" d="M96.1,140.14 C88.39,153.96 78.37,171.93 69.32,188.17 " fill="none" id="Firmware-to-Detector" style="stroke:#A80036;stroke-width:1.0;"/><polygon fill="#FFFFFF" points="62.95,199.6,69.3647,196.3058,68.7911,189.1176,62.3764,192.4117,62.95,199.6" style="stroke:#A80036;stroke-width:1.0;"/><text fill="#000000" font-family="sans-serif" font-size="13" lengthAdjust="spacing" textLength="7" x="85.1025" y="161.5121">1</text><text fill="#000000" font-family="sans-serif" font-size="13" lengthAdjust="spacing" textLength="21" x="43.2803" y="189.022">5x5</text><!--MD5=[233ea4273d14ef5bdb0ce461fd69d5ea]
link Firmware to UART_Driver--><path codeLine="15" d="M121.9,140.14 C130.78,156.06 142.72,177.49 152.72,195.42 " fill="none" id="Firmware-to-UART_Driver" style="stroke:#A80036;stroke-width:1.0;"/><polygon fill="#FFFFFF" points="159.12,206.89,159.6936,199.7017,153.2789,196.4076,152.7053,203.5958,159.12,206.89" style="stroke:#A80036;stroke-width:1.0;"/><text fill="#000000" font-family="sans-serif" font-size="13" lengthAdjust="spacing" textLength="7" x="117.1913" y="161.5121">1</text><text fill="#000000" font-family="sans-serif" font-size="13" lengthAdjust="spacing" textLength="7" x="147.9226" y="196.202">1</text><!--MD5=[b2c4a799a7d467d86195d43161fbfd30]
@startumlnote

note top of Firmware: Entry point.

class Firmware {
}

class Detector {
    int counter
}

class UART_Driver {
}

Firmware "1" - -o "5x5" Detector
Firmware "1" - -o "1" UART_Driver

@enduml

PlantUML version 1.2021.7(Sun May 23 14:40:07 CEST 2021)
(GPL source distribution)
Java Runtime: Java(TM) SE Runtime Environment
JVM: Java HotSpot(TM) 64-Bit Server VM
Default Encoding: Cp1250
Language: pl
Country: PL
--></g></svg>